<svg width="23" height="21" viewBox="0 0 23 21" fill="none" xmlns="http://www.w3.org/2000/svg">
<g clip-path="url(#clip0_14_10)">
<path d="M6.37654 1.01185C2.59016 0.947806 0.436759 4.58822 1.12836 7.8089C2.40915 13.7734 8.18341 17.6588 11.5902 19.6246C15.0595 17.7228 20.6431 13.8375 21.8598 7.87294C22.5183 4.64531 21.3087 1.13585 17.0012 1.01185C16.1467 0.987247 15.114 0.950756 14.213 1.47889C13.1005 2.13094 12.0909 3.05903 11.5261 3.90592C10.5039 2.37309 8.28659 1.04415 6.37654 1.01185Z" stroke="#CCCCCC" stroke-width="1.89958" stroke-linecap="round" stroke-linejoin="round"/>
<path d="M5.10016 3.90595C5.20844 3.66774 5.72145 3.55857 5.94107 3.51023C6.51676 3.3835 7.21132 3.42922 7.79601 3.46694C8.42726 3.50767 9.16363 3.86739 9.68805 4.21201C10.116 4.49322 10.5287 4.84271 10.9309 5.16113C11.2344 5.40141 11.686 5.82639 12.1242 5.72997C12.384 5.67283 12.5866 5.41742 12.7796 5.25387C13.005 5.06291 13.2493 4.97567 13.3299 4.66338C13.4471 4.20916 13.7689 3.76037 14.109 3.43912C14.6851 2.89506 15.6411 2.7801 16.3968 2.73733C16.5293 2.72983 16.6213 2.63443 16.743 2.62604C16.8786 2.61668 17.0182 2.62604 17.1542 2.62604C17.546 2.62604 18.0139 2.6002 18.3692 2.79916C18.6509 2.95693 18.9246 3.15201 19.2008 3.32164C19.4166 3.45411 19.8312 3.63995 19.9583 3.87503C20.0884 4.11588 20.3906 4.52709 20.4034 4.79632C20.4538 5.85419 20.6325 7.01509 20.153 7.99919C19.8143 8.69454 19.8465 9.6381 19.1792 10.1386" stroke="#CCCCCC" stroke-width="3" stroke-linecap="round"/>
<path d="M19.1791 10.1386C19.1366 10.2805 18.9377 10.4455 18.8514 10.5652C18.6346 10.8662 18.4734 11.1658 18.2177 11.437C18.0478 11.6171 18.0657 11.7444 17.8869 11.9069C17.6468 12.1252 17.3823 12.3005 17.1263 12.5005C16.7164 12.8208 16.3804 13.1919 15.9856 13.5269C15.6911 13.7768 15.3395 14.071 15.0055 14.2565C14.6878 14.433 14.3294 14.5814 14.0657 14.8377C13.5994 15.2911 13.0933 15.7362 12.5817 16.1455C12.3772 16.3091 12.1281 16.4119 11.914 16.5505C11.8523 16.5904 11.9069 16.726 11.8583 16.7885C11.8068 16.8547 11.6765 16.8942 11.6666 16.9833C11.5809 17.7553 13.4147 16.692 13.5618 16.6185C14.1576 16.3206 14.5855 15.8035 14.9808 15.2953C15.2368 14.9662 15.6439 14.7563 15.8279 14.3678C15.8832 14.251 15.5166 14.4566 15.5002 14.4668C15.225 14.6382 14.996 14.8786 14.7273 15.0603C14.2954 15.3525 13.8404 15.6067 13.4041 15.892C13.0558 16.1197 12.6903 16.2823 12.3344 16.4948C11.9789 16.7072 11.5208 16.9743 11.0978 16.9833C10.4661 16.9967 10.0145 16.71 9.56436 16.2599C9.38754 16.083 9.23812 15.8625 9.12536 15.6416C8.93518 15.269 8.65159 14.9949 8.38647 14.6801C8.16703 14.4195 7.79396 14.1855 7.49919 14.003C7.21808 13.829 7.03386 13.5592 6.75721 13.3971C6.39889 13.187 6.19579 12.821 5.82665 12.618C5.60599 12.4966 5.44424 12.3004 5.27326 12.1172C4.9718 11.7942 4.69441 11.4421 4.41998 11.0722C4.15438 10.7142 3.77885 10.4568 3.62545 10.0273C3.47375 9.60251 3.22755 9.19263 3.10297 8.75662C2.83112 7.80512 2.86108 6.80013 2.8742 5.81654C2.88374 5.10101 3.12339 4.06865 3.68419 3.57515C4.12253 3.18941 4.93567 3.12341 5.4773 2.99084C5.941 2.87735 6.26888 2.79298 6.74485 2.79298C7.19491 2.79298 7.77093 2.67888 8.14224 2.98466C8.69385 3.43892 9.36428 3.77397 8.83475 4.53044C8.6228 4.83322 8.31873 5.09192 8.01857 5.30334C7.50035 5.66835 7.03304 6.04649 6.56553 6.47504C6.06096 6.93757 5.81185 7.51806 5.63806 8.18159C5.5718 8.43461 5.59476 9.0906 5.77409 8.46292C6.03774 7.54016 6.25773 6.64725 6.40786 5.69906C6.46146 5.36059 6.61613 4.34599 6.53462 4.67884C6.4495 5.0264 6.18772 5.30021 6.01523 5.60631C5.72228 6.12621 5.66548 6.61846 5.65352 7.20466C5.63645 8.04119 5.36099 9.0218 6.17909 9.55116C6.83551 9.9759 7.1863 8.12595 7.2024 7.7395C7.23378 6.98637 7.19171 6.32624 7.00145 5.60322C6.9838 5.53616 6.96864 5.43717 6.94889 5.5754C6.88149 6.04719 6.79646 6.49364 6.66446 6.95424C6.44806 7.70941 6.2197 8.4117 6.23783 9.2049C6.25607 10.0029 6.86061 10.8441 7.31679 11.4587C7.54099 11.7607 8.04956 12.337 8.36483 11.8575C8.83539 11.1417 9.3731 10.2655 9.45615 9.39658C9.55611 8.35092 9.46584 7.29062 9.44379 6.24318C9.44058 6.09069 9.49734 5.64401 9.4407 5.78562C9.32923 6.06429 9.25027 6.33652 9.10681 6.60798C8.68605 7.40411 8.21158 8.18455 8.09586 9.0967C7.95452 10.2108 8.07822 11.4554 8.3401 12.5438C8.46246 13.0524 8.69568 13.6107 9.16246 13.8979C9.63204 14.1869 10.2296 13.8123 10.6402 13.5702C11.9652 12.7892 12.1108 11.0007 12.0253 9.61917C11.9575 8.52575 11.7678 7.39553 11.3946 6.36066C11.3814 6.32412 11.2185 5.91573 11.1349 5.93093C11.0581 5.94488 10.9843 6.21347 10.9741 6.24318C10.7975 6.75634 10.6764 7.29197 10.5537 7.81988C10.2608 9.07931 10.1381 10.3983 10.2878 11.6874C10.4015 12.667 10.8593 13.5967 11.2214 14.5039C11.3305 14.777 11.4224 15.0792 11.5646 15.3386C11.6197 15.439 11.6609 15.2229 11.6728 15.1964C12.035 14.3915 12.2442 13.6107 12.3622 12.7324C12.5207 11.5528 12.5688 10.3409 12.928 9.19872C13.1906 8.36361 13.4746 7.52611 13.7751 6.70382C13.9281 6.28496 14.0335 5.88499 14.0842 5.44246C14.0846 5.43962 14.0971 5.09329 14.1275 5.08074C14.2034 5.04949 14.5673 5.71365 14.5789 5.73616C15.1454 6.83744 15.055 8.22258 15.055 9.42131C15.055 10.3779 15.1961 11.6244 14.7829 12.5253C14.557 13.0178 13.9112 13.8683 13.3144 13.9721C12.9453 14.0363 13.5443 13.3595 13.5834 13.3105C14.1886 12.5519 14.9294 11.8884 15.4167 11.0413C15.8713 10.251 16.0228 9.39769 16.0814 8.49693C16.1402 7.59422 16.1956 6.71317 15.8403 5.866C15.7072 5.54879 15.5601 5.23283 15.3982 4.92926C15.3284 4.79853 15.0745 4.52072 15.0488 4.36659C15.0192 4.18894 15.3151 4.60927 15.4445 4.73449C16.309 5.57065 17.8144 5.83925 18.1651 7.10572C18.49 8.27893 18.1014 9.54906 17.3366 10.4477C17.0718 10.7588 16.7713 11.0671 16.4091 11.2639C16.0057 11.4831 16.0832 11.0609 16.1123 10.7507C16.1648 10.1914 16.3075 9.65595 16.4277 9.10906C16.6464 8.11338 16.7903 7.10518 16.8265 6.08551C16.8468 5.51246 16.8175 5.02574 16.5637 4.51808" stroke="#CCCCCC" stroke-width="3" stroke-linecap="round"/>
<path d="M16.7307 4.68503C17.0251 4.68503 17.229 4.68961 17.5283 4.81487C17.9109 4.97503 19.0828 5.44692 19.1204 5.97421C19.1537 6.44039 19.3094 7.16112 18.9009 7.46744" stroke="#CCCCCC" stroke-width="3" stroke-linecap="round"/>
<path d="M4.98885 5.68669C4.98115 5.40153 4.97783 4.81119 4.72916 4.60773C4.49577 4.41678 4.69226 4.85257 4.71061 4.90762" stroke="#CCCCCC" stroke-width="3" stroke-linecap="round"/>
</g>
<defs>
<clipPath id="clip0_14_10">
<rect width="23" height="21" fill="white"/>
</clipPath>
</defs>
</svg>
