<svg width="32" height="32" viewBox="0 0 32 32" fill="none" xmlns="http://www.w3.org/2000/svg">
<path d="M11.807 9.776C11.818 9.776 11.812 9.776 11.807 9.776ZM8.10901 7.927C8.12001 7.927 8.11401 7.927 8.10901 7.927ZM30.229 10.781C29.562 9.177 28.208 7.448 27.15 6.896C28.015 8.588 28.515 10.292 28.702 11.557L28.707 11.584C26.968 7.255 24.026 5.511 21.619 1.713C21.499 1.521 21.379 1.328 21.259 1.125C21.196 1.021 21.144 0.916999 21.087 0.805999C20.988 0.613999 20.916 0.410999 20.863 0.196999C20.863 0.176999 20.848 0.160999 20.827 0.155999C20.816 0.155999 20.806 0.155999 20.796 0.155999L20.791 0.160999C20.786 0.160999 20.78 0.165999 20.78 0.165999C20.78 0.165999 20.78 0.160999 20.785 0.154999C17.368 2.155 15.957 5.66 15.592 7.884C14.535 7.947 13.504 8.212 12.551 8.66C12.368 8.753 12.286 8.963 12.354 9.149C12.431 9.362 12.671 9.468 12.879 9.373C13.712 8.982 14.608 8.748 15.53 8.686L15.619 8.675C15.744 8.67 15.874 8.664 15.999 8.664C16.744 8.659 17.488 8.763 18.202 8.971L18.327 9.008C18.447 9.044 18.562 9.085 18.682 9.128C18.765 9.159 18.854 9.191 18.937 9.227C19.005 9.252 19.073 9.284 19.14 9.31C19.245 9.358 19.349 9.41 19.453 9.462L19.593 9.529C19.697 9.582 19.797 9.638 19.896 9.696C19.959 9.733 20.021 9.769 20.083 9.811C21.194 10.499 22.12 11.452 22.766 12.587C21.949 12.015 20.479 11.442 19.069 11.692C24.589 14.452 23.105 23.957 15.454 23.597C14.771 23.572 14.099 23.441 13.459 23.212C13.303 23.155 13.151 23.092 13.006 23.029C12.918 22.988 12.829 22.946 12.746 22.905C10.87 21.936 9.32301 20.102 9.13101 17.878C9.13101 17.878 9.83901 15.238 14.203 15.238C14.678 15.238 16.027 13.919 16.052 13.539C16.041 13.414 13.369 12.352 12.328 11.326C11.771 10.779 11.511 10.514 11.276 10.315C11.151 10.206 11.016 10.107 10.875 10.014C10.527 8.79 10.511 7.493 10.834 6.263C9.25501 6.982 8.03101 8.118 7.14101 9.118H7.13201C6.52301 8.347 6.56901 5.805 6.60001 5.274C6.59501 5.238 6.14701 5.503 6.08901 5.545C5.55301 5.93 5.04801 6.358 4.58901 6.832C4.06401 7.363 3.58501 7.936 3.15201 8.551C2.16801 9.947 1.46501 11.53 1.09501 13.196C1.09001 13.217 0.950006 13.843 0.846006 14.613C0.825006 14.733 0.809006 14.853 0.794006 14.972C0.751006 15.264 0.721006 15.561 0.705006 15.853L0.700006 15.9C0.691006 16.072 0.680006 16.239 0.669006 16.411V16.488C0.669006 24.968 7.54401 31.843 16.024 31.843C23.617 31.843 29.924 26.327 31.159 19.087C31.186 18.89 31.206 18.692 31.227 18.494C31.534 15.863 31.196 13.093 30.232 10.781H30.229Z" fill="#BEBEBE"/>
</svg>
