<svg width="17" height="17" viewBox="0 0 17 17" fill="none" xmlns="http://www.w3.org/2000/svg">
<path d="M15.799 8.10471L9.83395 2.13971C9.08602 1.39697 7.87888 1.39697 7.13095 2.13971L1.16495 8.10471C0.545815 8.64939 1.36281 9.57839 1.98195 9.03371V14.5977C1.98195 15.7023 2.87738 16.5977 3.98195 16.5977H12.982C14.0865 16.5977 14.982 15.7023 14.982 14.5977V9.03371C15.0882 9.1202 15.22 9.16907 15.357 9.17271C15.9136 9.17156 16.192 8.49889 15.799 8.10471ZM13.732 14.7667L13.132 15.3477H10.982H5.98195H3.83195L3.23195 14.7667L3.23095 7.80671L8.01395 3.02371C8.27268 2.76587 8.69122 2.76587 8.94995 3.02371L13.732 7.80771V14.7667Z" fill="white"/>
</svg>
