<svg width="104" height="25" viewBox="0 0 104 25" fill="none" xmlns="http://www.w3.org/2000/svg">
<path d="M1.64205 23.1H16.366V24H0.634047V0.239999H1.64205V23.1ZM36.6574 0.239999V15.468C36.6574 18.348 35.8654 20.556 34.2814 22.092C32.6974 23.604 30.4774 24.36 27.6214 24.36C24.7894 24.36 22.5694 23.604 20.9614 22.092C19.3774 20.556 18.5854 18.348 18.5854 15.468V0.239999H19.5934V15.324C19.5934 17.94 20.2894 19.956 21.6814 21.372C23.0974 22.764 25.0774 23.46 27.6214 23.46C30.1894 23.46 32.1694 22.764 33.5614 21.372C34.9534 19.956 35.6494 17.94 35.6494 15.324V0.239999H36.6574ZM52.0249 0.239999C54.3769 0.239999 56.2249 0.827999 57.5689 2.004C58.9369 3.18 59.6209 4.776 59.6209 6.792C59.6209 8.832 58.9369 10.44 57.5689 11.616C56.2009 12.768 54.3529 13.344 52.0249 13.344L51.8809 13.38H44.3569V24H43.3489V0.239999H52.0249ZM52.0249 12.444C54.1129 12.444 55.7329 11.952 56.8849 10.968C58.0369 9.984 58.6129 8.592 58.6129 6.792C58.6129 5.016 58.0369 3.636 56.8849 2.652C55.7329 1.644 54.1129 1.14 52.0249 1.14H44.3569V12.444H52.0249ZM53.2129 12.552L60.7369 24H59.5849L52.3849 13.164L53.2129 12.552ZM81.9083 0.239999L72.2603 10.104L72.1163 10.248L66.1763 16.26V14.856L80.5403 0.239999H81.9083ZM66.7163 0.239999V24H65.7083V0.239999H66.7163ZM72.2963 9.384L82.2323 24H80.9723L71.5403 10.104L72.2963 9.384ZM103.946 0.239999V15.468C103.946 18.348 103.154 20.556 101.57 22.092C99.9865 23.604 97.7665 24.36 94.9105 24.36C92.0785 24.36 89.8585 23.604 88.2505 22.092C86.6665 20.556 85.8745 18.348 85.8745 15.468V0.239999H86.8825V15.324C86.8825 17.94 87.5785 19.956 88.9705 21.372C90.3865 22.764 92.3665 23.46 94.9105 23.46C97.4785 23.46 99.4585 22.764 100.85 21.372C102.242 19.956 102.938 17.94 102.938 15.324V0.239999H103.946Z" fill="white"/>
</svg>
