<svg width="24" height="24" viewBox="0 0 24 24" fill="none" xmlns="http://www.w3.org/2000/svg">
<path fill-rule="evenodd" clip-rule="evenodd" d="M17 10C17 9.44772 16.5523 9 16 9C15.4477 9 15 9.44772 15 10V12C15 11.4477 14.5523 11 14 11H6.5002H3C2.44772 11 2 11.4477 2 12C2 12.5523 2.44772 13 3 13H6.5002H14C14.5523 13 15 12.5523 15 12V14C15 14.5523 15.4477 15 16 15C16.5523 15 17 14.5523 17 14V12C17 12.5523 17.4477 13 18 13H21C21.5523 13 22 12.5523 22 12C22 11.4477 21.5523 11 21 11H18C17.4477 11 17 11.4477 17 12V10Z" fill="#CCCCCC"/>
<path fill-rule="evenodd" clip-rule="evenodd" d="M8 3C8.55228 3 9 3.44772 9 4V6V8C9 8.55228 8.55228 9 8 9C7.44772 9 7 8.55228 7 8V6V4C7 3.44772 7.44772 3 8 3ZM7 6C7 6.55228 6.55228 7 6 7H3C2.44772 7 2 6.55228 2 6C2 5.44772 2.44772 5 3 5H6C6.55228 5 7 5.44772 7 6ZM9 6C9 6.55228 9.44772 7 10 7H17.4792L17.549 7.00289C17.5632 7.00348 17.5774 7.00377 17.5915 7.00375L21.0011 7C21.5534 6.99939 22.0006 6.55118 22 5.9989C21.9994 5.44662 21.5512 4.99939 20.9989 5L17.6106 5.00373L17.5412 5.00086C17.5274 5.00029 17.5136 5 17.4998 5H10C9.44772 5 9 5.44772 9 6Z" fill="#CCCCCC"/>
<path fill-rule="evenodd" clip-rule="evenodd" d="M8 15C8.55228 15 9 15.4477 9 16V18V20C9 20.5523 8.55228 21 8 21C7.44772 21 7 20.5523 7 20V18V16C7 15.4477 7.44772 15 8 15ZM7 18C7 18.5523 6.55228 19 6 19H3C2.44772 19 2 18.5523 2 18C2 17.4477 2.44772 17 3 17H6C6.55228 17 7 17.4477 7 18ZM9 18C9 18.5523 9.44772 19 10 19H17.4792L17.549 19.0029C17.5632 19.0035 17.5774 19.0038 17.5915 19.0037L21.0011 19C21.5534 18.9994 22.0006 18.5512 22 17.9989C21.9994 17.4466 21.5512 16.9994 20.9989 17L17.6106 17.0037L17.5412 17.0009C17.5274 17.0003 17.5136 17 17.4998 17H10C9.44772 17 9 17.4477 9 18Z" fill="#CCCCCC"/>
</svg>
