<svg width="14" height="14" viewBox="0 0 14 14" fill="none" xmlns="http://www.w3.org/2000/svg">
<path fill-rule="evenodd" clip-rule="evenodd" d="M7.91931 1.34446V0.34446H5.91931V1.34446V6.4641V7.4641V9.33227C5.76682 9.10188 5.59889 8.87204 5.41169 8.65622C4.45999 7.55895 3.21577 6.87951 2.16586 6.30891C1.68061 6.04518 1.07345 6.22477 0.809725 6.71002C0.546002 7.19527 0.725586 7.80243 1.21084 8.06615C2.29874 8.6574 3.22122 9.18312 3.90082 9.96666C4.20324 10.3153 4.42342 10.7006 4.6995 11.1837L4.69961 11.1839C4.7625 11.294 4.82828 11.4091 4.8986 11.53C5.1954 12.0403 5.56029 12.5113 5.91935 12.9282C5.92413 13.4764 6.36999 13.9193 6.91931 13.9193C7.1701 13.9193 7.39933 13.827 7.57486 13.6745C7.75013 13.6369 7.91749 13.5518 8.0564 13.4187C8.29462 13.1904 8.45464 12.9311 8.564 12.7335C8.61958 12.633 8.67009 12.5333 8.7111 12.4523L8.71155 12.4514C8.75559 12.3644 8.78872 12.299 8.8215 12.2396C9.3153 11.3436 9.8337 10.5343 10.475 9.8238C11.2636 8.9501 12.1926 8.1879 13.2029 7.61058C13.6824 7.33657 13.849 6.72572 13.575 6.2462C13.301 5.76668 12.6901 5.60009 12.2106 5.8741C11.0043 6.56342 9.91149 7.46315 8.99031 8.48374C8.59103 8.9261 8.23877 9.39072 7.91931 9.86688V7.4641V6.4641V1.34446Z" fill="#A2A2A2"/>
</svg>
