<svg width="16" height="15" viewBox="0 0 16 15" fill="none" xmlns="http://www.w3.org/2000/svg">
<g filter="url(#filter0_d_1_5)">
<path d="M3 0C1.89543 0 1 0.89543 1 2V12C1 13.1046 1.89543 14 3 14H13C14.1046 14 15 13.1046 15 12V2C15 0.89543 14.1046 0 13 0H3ZM3 1H13C13.5523 1 14 1.44772 14 2V12C14 12.5523 13.5523 13 13 13H3C2.44772 13 2 12.5523 2 12V2C2 1.44772 2.44772 1 3 1ZM4.5 2C3.67157 2 3 2.67157 3 3.5V5.5C3 5.77614 3.22386 6 3.5 6C3.77614 6 4 5.77614 4 5.5V3.5C4 3.22386 4.22386 3 4.5 3H6.5C6.77614 3 7 2.77614 7 2.5C7 2.22386 6.77614 2 6.5 2H4.5ZM9.5 2C9.2239 2 9 2.22386 9 2.5C9 2.77614 9.2239 3 9.5 3H11.5C11.7761 3 12 3.22386 12 3.5V5.5C12 5.77614 12.2239 6 12.5 6C12.7761 6 13 5.77614 13 5.5V3.5C13 2.67157 12.3284 2 11.5 2H9.5ZM3.5 8C3.22386 8 3 8.2239 3 8.5V10.5C3 11.3284 3.67157 12 4.5 12H6.5C6.77614 12 7 11.7761 7 11.5C7 11.2239 6.77614 11 6.5 11H4.5C4.22386 11 4 10.7761 4 10.5V8.5C4 8.2239 3.77614 8 3.5 8ZM12.5 8C12.2239 8 12 8.2239 12 8.5V10.5C12 10.7761 11.7761 11 11.5 11H9.5C9.2239 11 9 11.2239 9 11.5C9 11.7761 9.2239 12 9.5 12H11.5C12.3284 12 13 11.3284 13 10.5V8.5C13 8.2239 12.7761 8 12.5 8Z" fill="white"/>
</g>
<defs>
<filter id="filter0_d_1_5" x="-3" y="0" width="22" height="22" filterUnits="userSpaceOnUse" color-interpolation-filters="sRGB">
<feFlood flood-opacity="0" result="BackgroundImageFix"/>
<feColorMatrix in="SourceAlpha" type="matrix" values="0 0 0 0 0 0 0 0 0 0 0 0 0 0 0 0 0 0 127 0" result="hardAlpha"/>
<feOffset dy="4"/>
<feGaussianBlur stdDeviation="2"/>
<feComposite in2="hardAlpha" operator="out"/>
<feColorMatrix type="matrix" values="0 0 0 0 0 0 0 0 0 0 0 0 0 0 0 0 0 0 0.25 0"/>
<feBlend mode="normal" in2="BackgroundImageFix" result="effect1_dropShadow_1_5"/>
<feBlend mode="normal" in="SourceGraphic" in2="effect1_dropShadow_1_5" result="shape"/>
</filter>
</defs>
</svg>
